<?xml version="1.0" encoding="UTF-8" standalone="no"?>
<!DOCTYPE svg PUBLIC "-//W3C//DTD SVG 1.1//EN" "http://www.w3.org/Graphics/SVG/1.1/DTD/svg11.dtd">
<svg width="100%" height="100%" viewBox="0 0 2552 1701" version="1.1" xmlns="http://www.w3.org/2000/svg" xmlns:xlink="http://www.w3.org/1999/xlink" xml:space="preserve" xmlns:serif="http://www.serif.com/" style="fill-rule:evenodd;clip-rule:evenodd;stroke-linecap:round;stroke-linejoin:round;stroke-miterlimit:1.5;">
    <g id="_05_OPMERKINGEN" serif:id="05_OPMERKINGEN">
        <g>
            <text x="1788.34px" y="64.093px" style="font-family:'Arial-BoldMT', 'Arial', sans-serif;font-weight:700;font-size:18px;">Plaat 1 van 1</text>
            <text x="1788.34px" y="101.271px" style="font-family:'Arial-BoldMT', 'Arial', sans-serif;font-weight:700;font-size:18px;">MDF 600x450x6mm</text>
        </g>
    </g>
    <g id="_04_WERKSTUK" serif:id="04_WERKSTUK">
        <g id="marge" transform="matrix(4.488,0,0,3.85131,-2320.51,-1148.2)">
            <rect x="526.522" y="309.172" width="372.648" height="323.849" style="fill:none;stroke:black;stroke-width:0.24px;stroke-dasharray:1.2,1.2,0,0;"/>
        </g>
        <g id="MDF600x450" transform="matrix(4.56406,0,0,3.93884,-2374.73,-1189.43)">
            <rect x="526.522" y="309.172" width="372.648" height="323.849" style="fill:none;stroke:black;stroke-width:0.23px;"/>
        </g>
    </g>
    <g id="_03_GRAVEERVLAKKEN" serif:id="03_GRAVEERVLAKKEN">
        <g transform="matrix(3.52102,3.9443e-31,3.9443e-31,3.52102,600.474,-1107.12)">
            <path d="M181.219,594.655C180.522,594.943 179.792,595.087 179.029,595.087C177.799,595.087 176.855,594.72 176.196,593.986C175.537,593.251 175.208,592.165 175.208,590.728C175.208,590.031 175.299,589.401 175.481,588.837C175.663,588.273 175.922,587.795 176.259,587.403C176.597,587.01 177.005,586.707 177.484,586.494C177.964,586.281 178.5,586.174 179.095,586.174C179.499,586.174 179.874,586.209 180.22,586.278C180.566,586.346 180.899,586.452 181.219,586.594L181.219,587.759C180.903,587.586 180.577,587.454 180.24,587.363C179.903,587.272 179.534,587.226 179.135,587.226C178.727,587.226 178.357,587.303 178.027,587.456C177.696,587.609 177.415,587.831 177.185,588.122C176.954,588.412 176.776,588.767 176.652,589.187C176.528,589.606 176.466,590.084 176.466,590.621C176.466,591.748 176.694,592.598 177.151,593.17C177.609,593.743 178.279,594.029 179.162,594.029C179.534,594.029 179.892,593.986 180.233,593.899C180.575,593.813 180.903,593.692 181.219,593.537L181.219,594.655Z" style="fill:none;stroke:black;stroke-width:0.03px;stroke-linecap:butt;stroke-miterlimit:1.41421;"/>
        </g>
        <g transform="matrix(3.52102,3.9443e-31,3.9443e-31,3.52102,600.474,-1107.12)">
            <path d="M188.973,591.586C188.973,592.105 188.9,592.581 188.754,593.014C188.607,593.447 188.396,593.817 188.121,594.126C187.846,594.434 187.511,594.674 187.116,594.845C186.721,595.015 186.273,595.101 185.772,595.101C185.292,595.101 184.863,595.026 184.484,594.878C184.104,594.729 183.782,594.511 183.518,594.222C183.254,593.934 183.052,593.576 182.913,593.15C182.773,592.724 182.703,592.234 182.703,591.679C182.703,591.16 182.776,590.686 182.923,590.258C183.069,589.83 183.28,589.462 183.555,589.153C183.83,588.845 184.165,588.605 184.56,588.434C184.955,588.264 185.403,588.178 185.905,588.178C186.384,588.178 186.813,588.252 187.193,588.401C187.572,588.55 187.894,588.767 188.158,589.053C188.422,589.34 188.624,589.696 188.764,590.122C188.903,590.548 188.973,591.036 188.973,591.586ZM187.788,591.639C187.788,591.227 187.743,590.866 187.652,590.558C187.561,590.249 187.431,589.992 187.263,589.786C187.094,589.579 186.889,589.424 186.647,589.32C186.405,589.215 186.135,589.163 185.838,589.163C185.492,589.163 185.196,589.231 184.949,589.366C184.703,589.502 184.501,589.682 184.344,589.909C184.186,590.135 184.071,590.398 183.998,590.698C183.924,590.997 183.888,591.311 183.888,591.639C183.888,592.052 183.933,592.414 184.024,592.724C184.115,593.035 184.245,593.294 184.414,593.5C184.582,593.706 184.786,593.862 185.026,593.966C185.266,594.07 185.536,594.122 185.838,594.122C186.184,594.122 186.48,594.055 186.727,593.919C186.973,593.784 187.175,593.603 187.332,593.377C187.49,593.15 187.605,592.888 187.679,592.588C187.752,592.288 187.788,591.972 187.788,591.639Z" style="fill:none;stroke:black;stroke-width:0.03px;stroke-linecap:butt;stroke-miterlimit:1.41421;"/>
        </g>
        <g transform="matrix(3.52102,3.9443e-31,3.9443e-31,3.52102,600.474,-1107.12)">
            <path d="M190.651,588.298L191.682,588.298L191.729,589.376C191.924,589.145 192.113,588.954 192.295,588.8C192.477,588.647 192.655,588.524 192.831,588.431C193.006,588.338 193.185,588.272 193.367,588.235C193.548,588.197 193.737,588.178 193.932,588.178C194.62,588.178 195.14,588.381 195.493,588.787C195.846,589.193 196.022,589.804 196.022,590.621L196.022,594.981L194.864,594.981L194.864,590.714C194.864,590.191 194.767,589.803 194.571,589.553C194.376,589.302 194.085,589.177 193.699,589.177C193.557,589.177 193.419,589.198 193.283,589.24C193.148,589.282 193.007,589.355 192.861,589.459C192.714,589.564 192.556,589.705 192.385,589.882C192.214,590.06 192.022,590.282 191.809,590.548L191.809,594.981L190.651,594.981L190.651,588.298Z" style="fill:none;stroke:black;stroke-width:0.03px;stroke-linecap:butt;stroke-miterlimit:1.41421;"/>
        </g>
        <g transform="matrix(3.52102,3.9443e-31,3.9443e-31,3.52102,600.474,-1107.12)">
            <path d="M203.531,594.888C203.269,594.954 202.998,595.002 202.719,595.031C202.439,595.06 202.155,595.074 201.867,595.074C201.028,595.074 200.402,594.884 199.99,594.505C199.577,594.126 199.371,593.543 199.371,592.758L199.371,589.27L197.5,589.27L197.5,588.298L199.371,588.298L199.371,586.461L200.529,586.161L200.529,588.298L203.531,588.298L203.531,589.27L200.529,589.27L200.529,592.665C200.529,593.144 200.656,593.502 200.912,593.74C201.167,593.977 201.543,594.096 202.04,594.096C202.253,594.096 202.486,594.079 202.739,594.046C202.992,594.012 203.256,593.96 203.531,593.889L203.531,594.888Z" style="fill:none;stroke:black;stroke-width:0.03px;stroke-linecap:butt;stroke-miterlimit:1.41421;"/>
        </g>
        <g transform="matrix(3.52102,3.9443e-31,3.9443e-31,3.52102,600.474,-1107.12)">
            <path d="M205.914,588.298L206.972,588.298L207.006,589.529C207.401,589.055 207.79,588.711 208.174,588.498C208.558,588.285 208.945,588.178 209.335,588.178C210.028,588.178 210.552,588.402 210.91,588.85C211.267,589.299 211.432,589.964 211.406,590.847L210.234,590.847C210.247,590.262 210.162,589.837 209.978,589.573C209.794,589.309 209.524,589.177 209.169,589.177C209.014,589.177 208.857,589.204 208.7,589.26C208.542,589.315 208.38,589.404 208.214,589.526C208.047,589.648 207.871,589.804 207.685,589.995C207.498,590.186 207.298,590.417 207.085,590.688L207.085,594.981L205.914,594.981L205.914,588.298Z" style="fill:none;stroke:black;stroke-width:0.03px;stroke-linecap:butt;stroke-miterlimit:1.41421;"/>
        </g>
        <g transform="matrix(3.52102,3.9443e-31,3.9443e-31,3.52102,600.474,-1107.12)">
            <path d="M218.954,591.586C218.954,592.105 218.881,592.581 218.734,593.014C218.588,593.447 218.377,593.817 218.102,594.126C217.827,594.434 217.492,594.674 217.097,594.845C216.702,595.015 216.254,595.101 215.752,595.101C215.273,595.101 214.844,595.026 214.464,594.878C214.085,594.729 213.763,594.511 213.499,594.222C213.235,593.934 213.033,593.576 212.893,593.15C212.753,592.724 212.684,592.234 212.684,591.679C212.684,591.16 212.757,590.686 212.903,590.258C213.05,589.83 213.26,589.462 213.536,589.153C213.811,588.845 214.146,588.605 214.541,588.434C214.936,588.264 215.384,588.178 215.885,588.178C216.365,588.178 216.794,588.252 217.173,588.401C217.553,588.55 217.874,588.767 218.139,589.053C218.403,589.34 218.604,589.696 218.744,590.122C218.884,590.548 218.954,591.036 218.954,591.586ZM217.769,591.639C217.769,591.227 217.724,590.866 217.633,590.558C217.542,590.249 217.412,589.992 217.243,589.786C217.075,589.579 216.869,589.424 216.627,589.32C216.386,589.215 216.116,589.163 215.819,589.163C215.473,589.163 215.176,589.231 214.93,589.366C214.684,589.502 214.482,589.682 214.324,589.909C214.167,590.135 214.051,590.398 213.978,590.698C213.905,590.997 213.868,591.311 213.868,591.639C213.868,592.052 213.914,592.414 214.005,592.724C214.096,593.035 214.226,593.294 214.394,593.5C214.563,593.706 214.767,593.862 215.007,593.966C215.246,594.07 215.517,594.122 215.819,594.122C216.165,594.122 216.461,594.055 216.707,593.919C216.954,593.784 217.156,593.603 217.313,593.377C217.471,593.15 217.586,592.888 217.659,592.588C217.732,592.288 217.769,591.972 217.769,591.639Z" style="fill:none;stroke:black;stroke-width:0.03px;stroke-linecap:butt;stroke-miterlimit:1.41421;"/>
        </g>
        <g transform="matrix(3.52102,3.9443e-31,3.9443e-31,3.52102,600.474,-1107.12)">
            <path d="M222.908,586.527L220.931,586.527L220.931,585.575L224.079,585.575L224.079,594.016L226.07,594.016L226.07,594.981L220.711,594.981L220.711,594.016L222.908,594.016L222.908,586.527Z" style="fill:none;stroke:black;stroke-width:0.03px;stroke-linecap:butt;stroke-miterlimit:1.41421;"/>
        </g>
        <g transform="matrix(3.52102,3.9443e-31,3.9443e-31,3.52102,600.474,-1107.12)">
            <path d="M230.403,586.527L228.426,586.527L228.426,585.575L231.575,585.575L231.575,594.016L233.565,594.016L233.565,594.981L228.206,594.981L228.206,594.016L230.403,594.016L230.403,586.527Z" style="fill:none;stroke:black;stroke-width:0.03px;stroke-linecap:butt;stroke-miterlimit:1.41421;"/>
        </g>
        <g transform="matrix(3.52102,3.9443e-31,3.9443e-31,3.52102,600.474,-1107.12)">
            <path d="M241.266,591.287C241.266,591.451 241.264,591.588 241.26,591.699C241.255,591.81 241.249,591.915 241.24,592.012L236.547,592.012C236.547,592.696 236.738,593.22 237.119,593.586C237.501,593.953 238.051,594.136 238.77,594.136C238.965,594.136 239.161,594.128 239.356,594.112C239.551,594.097 239.74,594.076 239.922,594.049C240.104,594.022 240.278,593.992 240.444,593.959C240.611,593.926 240.765,593.889 240.907,593.849L240.907,594.801C240.592,594.89 240.236,594.962 239.839,595.018C239.441,595.073 239.03,595.101 238.604,595.101C238.031,595.101 237.539,595.023 237.126,594.868C236.713,594.712 236.375,594.487 236.111,594.192C235.847,593.897 235.652,593.535 235.525,593.107C235.399,592.679 235.335,592.194 235.335,591.653C235.335,591.182 235.403,590.737 235.538,590.318C235.674,589.899 235.871,589.53 236.131,589.213C236.39,588.896 236.709,588.644 237.086,588.458C237.463,588.271 237.892,588.178 238.371,588.178C238.837,588.178 239.249,588.251 239.609,588.398C239.968,588.544 240.271,588.752 240.517,589.02C240.764,589.289 240.95,589.615 241.077,589.999C241.203,590.382 241.266,590.812 241.266,591.287ZM240.062,591.12C240.075,590.823 240.046,590.551 239.975,590.305C239.904,590.059 239.794,589.847 239.645,589.669C239.497,589.492 239.312,589.353 239.09,589.253C238.868,589.153 238.61,589.103 238.318,589.103C238.065,589.103 237.834,589.152 237.625,589.25C237.417,589.347 237.237,589.485 237.086,589.662C236.935,589.84 236.813,590.053 236.72,590.301C236.627,590.55 236.569,590.823 236.547,591.12L240.062,591.12Z" style="fill:none;stroke:black;stroke-width:0.03px;stroke-linecap:butt;stroke-miterlimit:1.41421;"/>
        </g>
        <g transform="matrix(3.52102,3.9443e-31,3.9443e-31,3.52102,600.474,-1107.12)">
            <path d="M243.39,588.298L244.448,588.298L244.481,589.529C244.876,589.055 245.266,588.711 245.65,588.498C246.033,588.285 246.421,588.178 246.811,588.178C247.503,588.178 248.028,588.402 248.385,588.85C248.743,589.299 248.908,589.964 248.881,590.847L247.71,590.847C247.723,590.262 247.638,589.837 247.453,589.573C247.269,589.309 247,589.177 246.645,589.177C246.489,589.177 246.333,589.204 246.175,589.26C246.018,589.315 245.856,589.404 245.69,589.526C245.523,589.648 245.347,589.804 245.16,589.995C244.974,590.186 244.774,590.417 244.561,590.688L244.561,594.981L243.39,594.981L243.39,588.298Z" style="fill:none;stroke:black;stroke-width:0.03px;stroke-linecap:butt;stroke-miterlimit:1.41421;"/>
        </g>
        <g transform="matrix(1.80579,2.02287e-31,2.02287e-31,1.80579,1022.66,-80.3981)">
            <path d="M263.679,594.981L258.214,594.981L258.214,593.903L260.45,593.903L260.45,587.552L258.367,588.684L257.941,587.699L260.71,586.241L261.735,586.241L261.735,593.903L263.679,593.903L263.679,594.981Z" style="fill:none;stroke:black;stroke-width:0.06px;stroke-linecap:butt;stroke-miterlimit:1.41421;"/>
        </g>
        <g transform="matrix(1.80579,2.02287e-31,2.02287e-31,1.80579,1022.66,-80.3981)">
            <path d="M268.232,592.884C268.382,592.884 268.526,592.913 268.661,592.971C268.796,593.028 268.914,593.108 269.014,593.21C269.114,593.312 269.192,593.431 269.25,593.566C269.308,593.702 269.337,593.847 269.337,594.002C269.337,594.153 269.308,594.295 269.25,594.428C269.192,594.562 269.114,594.678 269.014,594.778C268.914,594.878 268.796,594.957 268.661,595.014C268.526,595.072 268.382,595.101 268.232,595.101C268.076,595.101 267.932,595.072 267.799,595.014C267.666,594.957 267.549,594.878 267.449,594.778C267.35,594.678 267.271,594.562 267.213,594.428C267.155,594.295 267.127,594.153 267.127,594.002C267.127,593.847 267.155,593.702 267.213,593.566C267.271,593.431 267.35,593.312 267.449,593.21C267.549,593.108 267.666,593.028 267.799,592.971C267.932,592.913 268.076,592.884 268.232,592.884Z" style="fill:none;stroke:black;stroke-width:0.06px;stroke-linecap:butt;stroke-miterlimit:1.41421;"/>
        </g>
        <g transform="matrix(1.80579,2.02287e-31,2.02287e-31,1.80579,1022.66,-80.3981)">
            <path d="M278.942,590.634C278.942,591.3 278.875,591.907 278.742,592.455C278.609,593.003 278.407,593.473 278.136,593.866C277.866,594.259 277.53,594.563 277.128,594.778C276.726,594.993 276.255,595.101 275.713,595.101C275.247,595.101 274.824,595.013 274.442,594.838C274.06,594.663 273.734,594.393 273.464,594.029C273.193,593.665 272.984,593.201 272.838,592.638C272.691,592.074 272.618,591.406 272.618,590.634C272.618,589.969 272.686,589.361 272.821,588.81C272.957,588.26 273.158,587.789 273.427,587.396C273.695,587.003 274.032,586.699 274.435,586.484C274.839,586.269 275.31,586.161 275.847,586.161C276.313,586.161 276.736,586.249 277.118,586.424C277.5,586.599 277.826,586.87 278.096,587.236C278.367,587.602 278.576,588.067 278.722,588.631C278.869,589.194 278.942,589.862 278.942,590.634ZM277.77,590.674C277.77,590.523 277.765,590.374 277.754,590.225C277.743,590.076 277.73,589.931 277.717,589.789L274.036,592.525C274.103,592.755 274.187,592.969 274.289,593.164C274.391,593.359 274.514,593.527 274.658,593.666C274.803,593.806 274.967,593.915 275.151,593.992C275.335,594.07 275.545,594.109 275.78,594.109C276.082,594.109 276.356,594.036 276.602,593.889C276.848,593.743 277.058,593.525 277.231,593.237C277.404,592.949 277.537,592.59 277.63,592.162C277.724,591.734 277.77,591.238 277.77,590.674ZM273.79,590.594C273.79,590.732 273.791,590.87 273.793,591.007C273.795,591.145 273.803,591.278 273.816,591.406L277.497,588.684C277.431,588.458 277.346,588.251 277.244,588.065C277.142,587.879 277.02,587.718 276.878,587.582C276.736,587.447 276.574,587.342 276.392,587.266C276.21,587.191 276.006,587.153 275.78,587.153C275.478,587.153 275.204,587.226 274.958,587.373C274.712,587.519 274.502,587.738 274.329,588.028C274.156,588.319 274.023,588.678 273.93,589.107C273.836,589.535 273.79,590.031 273.79,590.594Z" style="fill:none;stroke:black;stroke-width:0.06px;stroke-linecap:butt;stroke-miterlimit:1.41421;"/>
        </g>
        <g transform="matrix(0.769462,0,1.0842e-19,0.769462,-100.705,512.339)">
            <path d="M542.497,444.304L592.621,438.531L604.539,436.379L614.7,431.62L622.667,424.325L628.137,417.888L630.914,410.003L629.735,407.832C629.754,407.713 629.011,407.664 629.011,407.664L628.437,409.773L628.709,414.583L620.775,413.042L623.771,408.514L631.079,372.984L633.481,370.13L634.999,370.212L635.694,373.883L635.467,374.703L636.189,374.848C636.189,374.848 636.208,374.45 636.319,374.275L637.083,370.379L639.721,367.19L647.391,329.785L655.545,316.354L658.148,307.717L657.595,316.895L659.856,331.018L652.498,369.852L653.407,372.974L652.558,377.306L653.253,377.448L655.614,374.175L656.753,374.392L657.852,378.307L651.101,414.165L651.374,419.102L643.92,417.534L646.415,412.762L646.668,411.386L645.895,411.29L643.717,412.656L643.202,420.214L643.836,423.675L645.882,427.289L648.45,430.584L652.191,432.142L662.349,434.581L678.711,436.822L701.183,438.104L774.822,439.947L960.157,440.448L1036.47,441.153L1071.21,444.155L856.19,444.941L709.773,446.452L682.824,447.102L666.975,447.721L652.623,449.104L642.978,451.504L638.518,454.609L633.768,458.002L628.307,464.029L623.793,471.132L619.112,480.931L615.845,488.678L611.092,501.721L613.918,481.562L614.774,470.104L614.631,459.668L610.876,452.312L603.606,448.598L591.458,446.45L580.57,445.414L542.497,444.304Z" style="fill:none;stroke:black;stroke-width:0.13px;stroke-linecap:butt;"/>
        </g>
        <g transform="matrix(0.359494,0,5.06542e-20,0.359494,826.992,834.487)">
            <path d="M542.497,444.304L592.621,438.531L604.539,436.379L614.7,431.62L622.667,424.325L628.137,417.888L630.914,410.003L629.735,407.832C629.754,407.713 629.011,407.664 629.011,407.664L628.437,409.773L628.709,414.583L620.775,413.042L623.771,408.514L631.079,372.984L633.481,370.13L634.999,370.212L635.694,373.883L635.467,374.703L636.189,374.848C636.189,374.848 636.208,374.45 636.319,374.275L637.083,370.379L639.721,367.19L647.391,329.785L655.545,316.354L658.148,307.717L657.595,316.895L659.856,331.018L652.498,369.852L653.407,372.974L652.558,377.306L653.253,377.448L655.614,374.175L656.753,374.392L657.852,378.307L651.101,414.165L651.374,419.102L643.92,417.534L646.415,412.762L646.668,411.386L645.895,411.29L643.717,412.656L643.202,420.214L643.836,423.675L645.882,427.289L648.45,430.584L652.191,432.142L662.349,434.581L678.711,436.822L701.183,438.104L774.822,439.947L960.157,440.448L1735.92,441.153L1805.04,445.032L856.19,444.941L709.773,446.452L682.824,447.102L666.975,447.721L652.623,449.104L642.978,451.504L638.518,454.609L633.768,458.002L628.307,464.029L623.793,471.132L619.112,480.931L615.845,488.678L611.092,501.721L613.918,481.562L614.774,470.104L614.631,459.668L610.876,452.312L603.606,448.598L591.458,446.45L580.57,445.414L542.497,444.304Z" style="fill:none;stroke:black;stroke-width:0.28px;stroke-linecap:butt;"/>
        </g>
        <g transform="matrix(0.769462,0,1.0842e-19,0.769462,-100.705,512.339)">
            <path d="M664.676,426.03L679.523,355.445L692.658,355.69L686.335,385.982L714.897,355.672L731.73,355.682L697.828,391.455L720.566,425.863L704.891,426.407L684.862,394.613L678.101,425.79L664.676,426.03Z" style="fill:none;stroke:black;stroke-width:0.13px;stroke-linecap:butt;"/>
        </g>
        <g transform="matrix(0.769462,0,1.0842e-19,0.769462,-100.705,512.339)">
            <path d="M728.662,425.715L774.53,425.944L776.509,414.806L743.75,414.54L748.163,395.442L775.137,395.345L777.11,384.26L749.799,383.662L754.043,366.355L785.383,366.419L787.549,355.779L741.903,355.262L728.662,425.715Z" style="fill:none;stroke:black;stroke-width:0.13px;stroke-linecap:butt;"/>
        </g>
        <g transform="matrix(0.769462,0,1.0842e-19,0.769462,-100.705,512.339)">
            <path d="M786.907,425.999L801.621,355.559L830.86,355.194C830.86,355.194 848.696,357.31 848.227,375.444C847.758,393.577 828.016,397.108 828.096,397.099C828.177,397.09 843.224,425.949 843.224,425.949L828.185,425.971L814.984,399.324L805.974,399.036L800.256,425.527L786.907,425.999ZM808.536,387.149L812.784,366.891C812.784,366.891 827.8,366.97 827.793,366.798C827.785,366.626 835.421,368.159 834.384,377.176C833.565,384.298 825.378,387.25 822.304,387.175C821.589,387.158 808.536,387.149 808.536,387.149Z" style="fill:none;stroke:black;stroke-width:0.13px;stroke-linecap:butt;"/>
        </g>
        <g transform="matrix(0.769462,0,1.0842e-19,0.769462,-100.705,512.339)">
            <path d="M852.056,425.521L866.732,355.387L894.908,355.687C894.908,355.687 911.649,358.905 911.169,372.917C910.65,388.081 899.625,387.763 899.566,389.651C899.507,391.54 909.279,392.418 908.689,404.53C908.099,416.642 895.012,425.962 882.431,425.868C873.15,425.799 852.056,425.521 852.056,425.521ZM867.861,414.577L871.764,395.802L888.901,395.772C888.901,395.772 895.792,396.297 895.124,404.397C894.456,412.497 886.385,414.674 880.966,414.862C875.547,415.051 867.861,414.577 867.861,414.577ZM877.363,366.81L874.109,383.753L888.752,383.751C888.752,383.751 897.024,383.313 897.809,374.83C898.14,371.255 896.139,366.757 891.707,366.809C891.287,366.814 877.363,366.81 877.363,366.81Z" style="fill:none;stroke:black;stroke-width:0.13px;stroke-linecap:butt;"/>
        </g>
        <g transform="matrix(0.769462,0,1.0842e-19,0.769462,-100.705,512.339)">
            <path d="M910.867,425.755L950.058,355.469L962.97,355.681L977.889,426.018L963.437,426.051L959.743,408.628L935.079,408.552L925.796,426.11L910.867,425.755ZM942.111,397.044L957.68,397.096L954.123,373.117L942.111,397.044Z" style="fill:none;stroke:black;stroke-width:0.13px;stroke-linecap:butt;"/>
        </g>
        <g transform="matrix(0.769462,0,1.0842e-19,0.769462,-100.705,512.339)">
            <path d="M1001.96,355.348L1015.46,355.366L1003.27,414.704L1036.33,415.224L1034.3,426.44L987.376,426.154L1001.96,355.348Z" style="fill:none;stroke:black;stroke-width:0.13px;stroke-linecap:butt;"/>
        </g>
        <g transform="matrix(1,0,2.40741e-35,1,440.519,562.837)">
            <path d="M-19.772,305.465C-19.772,306.157 -19.632,306.728 -19.351,307.179C-19.069,307.63 -18.691,308.003 -18.217,308.295C-17.742,308.588 -17.191,308.829 -16.564,309.016C-15.937,309.204 -15.284,309.379 -14.604,309.544C-13.69,309.766 -12.791,310.012 -11.906,310.282C-11.021,310.551 -10.233,310.923 -9.542,311.398C-8.851,311.873 -8.291,312.491 -7.863,313.253C-7.436,314.014 -7.222,314.993 -7.222,316.188C-7.222,317.407 -7.447,318.459 -7.898,319.343C-8.35,320.228 -8.977,320.955 -9.779,321.523C-10.582,322.091 -11.54,322.513 -12.653,322.789C-13.767,323.064 -14.985,323.202 -16.31,323.202C-16.919,323.202 -17.543,323.164 -18.182,323.087C-18.82,323.011 -19.43,322.909 -20.01,322.78C-20.59,322.651 -21.114,322.504 -21.583,322.34C-22.052,322.176 -22.421,322.012 -22.69,321.848L-22.69,319.229C-22.269,319.44 -21.794,319.633 -21.267,319.809C-20.739,319.985 -20.194,320.134 -19.632,320.257C-19.069,320.38 -18.501,320.477 -17.927,320.547C-17.353,320.618 -16.813,320.653 -16.31,320.653C-15.489,320.653 -14.707,320.583 -13.963,320.442C-13.219,320.301 -12.565,320.067 -12.003,319.739C-11.44,319.411 -10.995,318.962 -10.667,318.394C-10.339,317.826 -10.175,317.114 -10.175,316.258C-10.175,315.555 -10.318,314.975 -10.605,314.518C-10.893,314.061 -11.276,313.683 -11.757,313.384C-12.237,313.086 -12.791,312.842 -13.418,312.655C-14.045,312.467 -14.704,312.292 -15.395,312.128C-16.31,311.917 -17.203,311.679 -18.076,311.416C-18.949,311.152 -19.729,310.786 -20.414,310.317C-21.1,309.848 -21.65,309.245 -22.066,308.506C-22.482,307.768 -22.69,306.825 -22.69,305.676C-22.69,304.481 -22.479,303.453 -22.058,302.591C-21.636,301.73 -21.062,301.018 -20.335,300.456C-19.608,299.893 -18.759,299.477 -17.786,299.208C-16.813,298.938 -15.776,298.803 -14.675,298.803C-13.421,298.803 -12.252,298.923 -11.168,299.164C-10.084,299.404 -9.091,299.717 -8.188,300.104L-8.188,302.758C-9.161,302.348 -10.166,302.014 -11.203,301.756C-12.24,301.499 -13.351,301.364 -14.534,301.352C-15.425,301.352 -16.198,301.449 -16.854,301.642C-17.511,301.836 -18.056,302.111 -18.489,302.468C-18.923,302.826 -19.245,303.259 -19.456,303.769C-19.667,304.279 -19.772,304.844 -19.772,305.465Z" style="fill:none;stroke:black;stroke-width:0.1px;stroke-linecap:butt;stroke-miterlimit:1.41421;"/>
        </g>
        <g transform="matrix(1,0,2.40741e-35,1,440.519,562.837)">
            <path d="M0.776,322.762L-2.089,322.762L-2.089,299.243L4.433,299.243C5.405,299.243 6.305,299.301 7.131,299.419C7.957,299.536 8.716,299.717 9.407,299.963C10.813,300.467 11.88,301.22 12.606,302.222C13.333,303.224 13.696,304.458 13.696,305.922C13.696,307.118 13.459,308.17 12.984,309.078C12.51,309.986 11.821,310.745 10.919,311.354C10.017,311.963 8.918,312.423 7.623,312.734C6.328,313.045 4.86,313.2 3.22,313.2C2.435,313.2 1.62,313.165 0.776,313.094L0.776,322.762ZM0.776,310.475C1.163,310.522 1.567,310.557 1.989,310.581C2.411,310.604 2.81,310.616 3.185,310.616C4.532,310.616 5.681,310.51 6.63,310.299C7.579,310.088 8.353,309.781 8.95,309.377C9.548,308.972 9.981,308.48 10.251,307.9C10.521,307.32 10.655,306.661 10.655,305.922C10.655,305.008 10.436,304.258 9.996,303.672C9.557,303.087 8.933,302.641 8.124,302.337C7.62,302.149 7.04,302.017 6.384,301.941C5.728,301.865 4.966,301.827 4.099,301.827L0.776,301.827L0.776,310.475Z" style="fill:none;stroke:black;stroke-width:0.1px;stroke-linecap:butt;stroke-miterlimit:1.41421;"/>
        </g>
        <g transform="matrix(1,0,2.40741e-35,1,440.519,562.837)">
            <path d="M13.257,322.762L22.837,299.243L25.315,299.243L34.896,322.762L31.784,322.762L28.972,315.678L19.146,315.678L16.333,322.762L13.257,322.762ZM24.05,302.899C23.007,305.829 22.005,308.489 21.044,310.879L20.165,313.094L27.952,313.094L27.073,310.879C26.112,308.442 25.128,305.782 24.12,302.899L24.05,302.899Z" style="fill:none;stroke:black;stroke-width:0.1px;stroke-linecap:butt;stroke-miterlimit:1.41421;"/>
        </g>
        <g transform="matrix(1,0,2.40741e-35,1,440.519,562.837)">
            <path d="M49.573,301.352C48.272,301.352 47.057,301.56 45.926,301.976C44.795,302.392 43.813,303.013 42.981,303.839C42.149,304.666 41.493,305.691 41.013,306.916C40.532,308.14 40.292,309.567 40.292,311.196C40.292,312.813 40.515,314.216 40.96,315.406C41.405,316.595 42.038,317.58 42.858,318.359C43.679,319.138 44.666,319.715 45.82,320.09C46.975,320.465 48.261,320.653 49.679,320.653C50.065,320.653 50.476,320.632 50.909,320.591C51.343,320.55 51.779,320.492 52.219,320.416C52.658,320.339 53.086,320.252 53.502,320.152C53.918,320.052 54.29,319.944 54.618,319.827L54.618,322.358C53.927,322.628 53.124,322.836 52.21,322.982C51.296,323.128 50.358,323.202 49.397,323.202C47.44,323.202 45.706,322.929 44.194,322.384C42.683,321.839 41.414,321.057 40.389,320.038C39.363,319.018 38.587,317.773 38.06,316.302C37.532,314.832 37.269,313.165 37.269,311.301C37.269,309.473 37.547,307.792 38.104,306.256C38.66,304.721 39.463,303.403 40.512,302.301C41.561,301.2 42.832,300.341 44.326,299.726C45.82,299.111 47.499,298.803 49.362,298.803C49.855,298.803 50.341,298.824 50.821,298.865C51.302,298.906 51.762,298.964 52.201,299.041C52.641,299.117 53.048,299.208 53.423,299.313C53.798,299.419 54.12,299.53 54.39,299.647L54.39,302.178C53.687,301.944 52.919,301.748 52.087,301.589C51.255,301.431 50.417,301.352 49.573,301.352Z" style="fill:none;stroke:black;stroke-width:0.1px;stroke-linecap:butt;stroke-miterlimit:1.41421;"/>
        </g>
        <g transform="matrix(1,0,2.40741e-35,1,440.519,562.837)">
            <path d="M62.23,320.178L74.288,320.178L74.288,322.762L59.364,322.762L59.364,299.243L73.638,299.243L73.638,301.827L62.23,301.827L62.23,309.42L72.372,309.42L72.372,312.004L62.23,312.004L62.23,320.178Z" style="fill:none;stroke:black;stroke-width:0.1px;stroke-linecap:butt;stroke-miterlimit:1.41421;"/>
        </g>
        <g transform="matrix(1,0,2.40741e-35,1,440.519,562.837)">
            <path d="M89.282,322.762L86.417,322.762L86.417,299.243L92.938,299.243C93.911,299.243 94.811,299.301 95.637,299.419C96.463,299.536 97.222,299.717 97.913,299.963C99.319,300.467 100.386,301.22 101.112,302.222C101.839,303.224 102.202,304.458 102.202,305.922C102.202,307.118 101.965,308.17 101.49,309.078C101.016,309.986 100.327,310.745 99.425,311.354C98.522,311.963 97.424,312.423 96.129,312.734C94.834,313.045 93.366,313.2 91.726,313.2C90.94,313.2 90.126,313.165 89.282,313.094L89.282,322.762ZM89.282,310.475C89.669,310.522 90.073,310.557 90.495,310.581C90.917,310.604 91.315,310.616 91.69,310.616C93.038,310.616 94.187,310.51 95.136,310.299C96.085,310.088 96.858,309.781 97.456,309.377C98.054,308.972 98.487,308.48 98.757,307.9C99.026,307.32 99.161,306.661 99.161,305.922C99.161,305.008 98.941,304.258 98.502,303.672C98.063,303.087 97.438,302.641 96.63,302.337C96.126,302.149 95.546,302.017 94.89,301.941C94.233,301.865 93.472,301.827 92.605,301.827L89.282,301.827L89.282,310.475Z" style="fill:none;stroke:black;stroke-width:0.1px;stroke-linecap:butt;stroke-miterlimit:1.41421;"/>
        </g>
        <g transform="matrix(1,0,2.40741e-35,1,440.519,562.837)">
            <path d="M109.813,313.024L109.813,322.762L106.948,322.762L106.948,299.243L113.048,299.243C114.079,299.243 114.955,299.281 115.676,299.357C116.396,299.433 117.056,299.553 117.653,299.717C119.294,300.163 120.548,300.921 121.415,301.994C122.282,303.066 122.716,304.405 122.716,306.01C122.716,306.96 122.563,307.809 122.259,308.559C121.954,309.309 121.526,309.96 120.976,310.51C120.425,311.061 119.766,311.512 118.998,311.864C118.23,312.215 117.378,312.473 116.44,312.637L116.44,312.708L124.122,322.762L120.519,322.762L113.276,313.024L109.813,313.024ZM109.813,301.827L109.813,310.44L112.644,310.44C113.522,310.44 114.272,310.411 114.894,310.352C115.515,310.294 116.071,310.188 116.563,310.036C117.56,309.731 118.327,309.245 118.866,308.577C119.405,307.909 119.675,307.036 119.675,305.958C119.663,304.95 119.405,304.138 118.901,303.523C118.397,302.908 117.7,302.465 116.81,302.196C116.388,302.067 115.884,301.973 115.298,301.915C114.712,301.856 113.968,301.827 113.065,301.827L109.813,301.827Z" style="fill:none;stroke:black;stroke-width:0.1px;stroke-linecap:butt;stroke-miterlimit:1.41421;"/>
        </g>
        <g transform="matrix(1,0,2.40741e-35,1,440.519,562.837)">
            <path d="M146.429,311.02C146.429,309.438 146.224,308.044 145.813,306.837C145.403,305.629 144.838,304.622 144.117,303.813C143.396,303.004 142.547,302.392 141.568,301.976C140.59,301.56 139.538,301.352 138.413,301.352C137.288,301.352 136.236,301.56 135.258,301.976C134.279,302.392 133.43,303.004 132.709,303.813C131.988,304.622 131.423,305.629 131.013,306.837C130.603,308.044 130.397,309.438 130.397,311.02C130.397,312.602 130.605,313.994 131.021,315.195C131.438,316.396 132.006,317.401 132.727,318.21C133.447,319.018 134.297,319.628 135.275,320.038C136.254,320.448 137.312,320.653 138.448,320.653C139.573,320.653 140.619,320.448 141.586,320.038C142.553,319.628 143.396,319.018 144.117,318.21C144.838,317.401 145.403,316.396 145.813,315.195C146.224,313.994 146.429,312.602 146.429,311.02ZM149.452,311.02C149.452,312.801 149.194,314.436 148.679,315.924C148.163,317.413 147.425,318.696 146.464,319.774C145.503,320.852 144.346,321.693 142.992,322.296C141.639,322.9 140.124,323.202 138.448,323.202C136.714,323.202 135.161,322.9 133.79,322.296C132.419,321.693 131.259,320.852 130.31,319.774C129.36,318.696 128.634,317.413 128.13,315.924C127.626,314.436 127.374,312.801 127.374,311.02C127.374,309.227 127.635,307.584 128.156,306.089C128.678,304.595 129.416,303.309 130.371,302.231C131.326,301.153 132.483,300.312 133.843,299.709C135.202,299.105 136.726,298.803 138.413,298.803C140.136,298.803 141.68,299.105 143.045,299.709C144.41,300.312 145.567,301.153 146.517,302.231C147.466,303.309 148.192,304.595 148.696,306.089C149.2,307.584 149.452,309.227 149.452,311.02Z" style="fill:none;stroke:black;stroke-width:0.1px;stroke-linecap:butt;stroke-miterlimit:1.41421;"/>
        </g>
        <g transform="matrix(1,0,2.40741e-35,1,440.519,562.837)">
            <path d="M169.931,313.253L164.569,313.253L164.569,310.669L172.796,310.669L172.796,322.042C172.55,322.17 172.189,322.302 171.715,322.437C171.24,322.572 170.698,322.698 170.089,322.815C169.48,322.932 168.826,323.026 168.129,323.096C167.432,323.167 166.743,323.202 166.063,323.202C164.048,323.202 162.27,322.926 160.729,322.376C159.188,321.825 157.896,321.045 156.853,320.038C155.81,319.03 155.019,317.805 154.48,316.364C153.94,314.922 153.671,313.317 153.671,311.547C153.671,309.626 153.984,307.879 154.611,306.309C155.238,304.739 156.123,303.397 157.266,302.284C158.408,301.17 159.773,300.312 161.361,299.709C162.949,299.105 164.698,298.803 166.608,298.803C167.124,298.803 167.64,298.824 168.155,298.865C168.671,298.906 169.163,298.964 169.632,299.041C170.101,299.117 170.534,299.208 170.933,299.313C171.331,299.419 171.665,299.53 171.935,299.647L171.935,302.178C171.231,301.944 170.423,301.748 169.509,301.589C168.595,301.431 167.681,301.352 166.767,301.352C165.431,301.352 164.156,301.554 162.943,301.959C161.73,302.363 160.661,302.975 159.735,303.795C158.81,304.616 158.071,305.644 157.521,306.88C156.97,308.117 156.694,309.567 156.694,311.231C156.694,312.86 156.92,314.266 157.371,315.45C157.822,316.633 158.461,317.612 159.287,318.385C160.113,319.159 161.115,319.73 162.293,320.099C163.471,320.468 164.78,320.653 166.222,320.653C166.89,320.653 167.549,320.618 168.199,320.547C168.85,320.477 169.427,320.378 169.931,320.249L169.931,313.253Z" style="fill:none;stroke:black;stroke-width:0.1px;stroke-linecap:butt;stroke-miterlimit:1.41421;"/>
        </g>
        <g transform="matrix(1,0,2.40741e-35,1,440.519,562.837)">
            <path d="M181.462,313.024L181.462,322.762L178.597,322.762L178.597,299.243L184.696,299.243C185.728,299.243 186.604,299.281 187.324,299.357C188.045,299.433 188.704,299.553 189.302,299.717C190.942,300.163 192.196,300.921 193.063,301.994C193.931,303.066 194.364,304.405 194.364,306.01C194.364,306.96 194.212,307.809 193.907,308.559C193.603,309.309 193.175,309.96 192.624,310.51C192.073,311.061 191.414,311.512 190.646,311.864C189.879,312.215 189.026,312.473 188.089,312.637L188.089,312.708L195.771,322.762L192.167,322.762L184.925,313.024L181.462,313.024ZM181.462,301.827L181.462,310.44L184.292,310.44C185.171,310.44 185.921,310.411 186.542,310.352C187.163,310.294 187.72,310.188 188.212,310.036C189.208,309.731 189.976,309.245 190.515,308.577C191.054,307.909 191.323,307.036 191.323,305.958C191.312,304.95 191.054,304.138 190.55,303.523C190.046,302.908 189.349,302.465 188.458,302.196C188.036,302.067 187.532,301.973 186.946,301.915C186.36,301.856 185.616,301.827 184.714,301.827L181.462,301.827Z" style="fill:none;stroke:black;stroke-width:0.1px;stroke-linecap:butt;stroke-miterlimit:1.41421;"/>
        </g>
        <g transform="matrix(1,0,2.40741e-35,1,440.519,562.837)">
            <path d="M197.528,322.762L207.108,299.243L209.587,299.243L219.167,322.762L216.056,322.762L213.243,315.678L203.417,315.678L200.605,322.762L197.528,322.762ZM208.321,302.899C207.278,305.829 206.276,308.489 205.315,310.879L204.437,313.094L212.224,313.094L211.345,310.879C210.384,308.442 209.399,305.782 208.392,302.899L208.321,302.899Z" style="fill:none;stroke:black;stroke-width:0.1px;stroke-linecap:butt;stroke-miterlimit:1.41421;"/>
        </g>
        <g transform="matrix(1,0,2.40741e-35,1,440.519,562.837)">
            <path d="M235.233,322.762L233.915,322.762L227.991,308.717C227.171,306.784 226.351,304.68 225.53,302.407L225.39,302.407C225.554,305.676 225.636,308.67 225.636,311.389L225.636,322.762L222.771,322.762L222.771,299.243L226.901,299.243L232.438,312.549C233.071,314.073 233.769,315.907 234.53,318.051L234.618,318.051C235.462,315.672 236.159,313.838 236.71,312.549L242.247,299.243L246.378,299.243L246.378,322.762L243.513,322.762L243.513,311.389C243.513,308.729 243.595,305.735 243.759,302.407L243.618,302.407C242.751,304.809 241.931,306.913 241.157,308.717L235.233,322.762Z" style="fill:none;stroke:black;stroke-width:0.1px;stroke-linecap:butt;stroke-miterlimit:1.41421;"/>
        </g>
        <g transform="matrix(0.385333,-1.0859e-19,-5.4295e-20,0.385333,810.544,823.369)">
            <path d="M664.676,426.03L679.523,355.445L692.658,355.69L686.335,385.982L714.897,355.672L731.73,355.682L697.828,391.455L720.566,425.863L704.891,426.407L684.862,394.613L678.101,425.79L664.676,426.03Z" style="fill:none;stroke:black;stroke-width:0.26px;stroke-linecap:butt;"/>
        </g>
        <g transform="matrix(0.385333,-1.0859e-19,-5.4295e-20,0.385333,810.544,823.369)">
            <path d="M728.662,425.715L774.53,425.944L776.509,414.806L743.75,414.54L748.163,395.442L775.137,395.345L777.11,384.26L749.799,383.662L754.043,366.355L785.383,366.419L787.549,355.779L741.903,355.262L728.662,425.715Z" style="fill:none;stroke:black;stroke-width:0.26px;stroke-linecap:butt;"/>
        </g>
        <g transform="matrix(0.385333,-1.0859e-19,-5.4295e-20,0.385333,810.544,823.369)">
            <path d="M786.907,425.999L801.621,355.559L830.86,355.194C830.86,355.194 848.696,357.31 848.227,375.444C847.758,393.577 828.016,397.108 828.096,397.099C828.177,397.09 843.224,425.949 843.224,425.949L828.185,425.971L814.984,399.324L805.974,399.036L800.256,425.527L786.907,425.999ZM808.536,387.149L812.784,366.891C812.784,366.891 827.8,366.97 827.793,366.798C827.785,366.626 835.421,368.159 834.384,377.176C833.565,384.298 825.378,387.25 822.304,387.175C821.589,387.158 808.536,387.149 808.536,387.149Z" style="fill:none;stroke:black;stroke-width:0.26px;stroke-linecap:butt;"/>
        </g>
        <g transform="matrix(0.385333,-1.0859e-19,-5.4295e-20,0.385333,810.544,823.369)">
            <path d="M852.056,425.521L866.732,355.387L894.908,355.687C894.908,355.687 911.649,358.905 911.169,372.917C910.65,388.081 899.625,387.763 899.566,389.651C899.507,391.54 909.279,392.418 908.689,404.53C908.099,416.642 895.012,425.962 882.431,425.868C873.15,425.799 852.056,425.521 852.056,425.521ZM867.861,414.577L871.764,395.802L888.901,395.772C888.901,395.772 895.792,396.297 895.124,404.397C894.456,412.497 886.385,414.674 880.966,414.862C875.547,415.051 867.861,414.577 867.861,414.577ZM877.363,366.81L874.109,383.753L888.752,383.751C888.752,383.751 897.024,383.313 897.809,374.83C898.14,371.255 896.139,366.757 891.707,366.809C891.287,366.814 877.363,366.81 877.363,366.81Z" style="fill:none;stroke:black;stroke-width:0.26px;stroke-linecap:butt;"/>
        </g>
        <g transform="matrix(0.385333,-1.0859e-19,-5.4295e-20,0.385333,810.544,823.369)">
            <path d="M910.867,425.755L950.058,355.469L962.97,355.681L977.889,426.018L963.437,426.051L959.743,408.628L935.079,408.552L925.796,426.11L910.867,425.755ZM942.111,397.044L957.68,397.096L954.123,373.117L942.111,397.044Z" style="fill:none;stroke:black;stroke-width:0.26px;stroke-linecap:butt;"/>
        </g>
        <g transform="matrix(0.385333,-1.0859e-19,-5.4295e-20,0.385333,810.544,823.369)">
            <path d="M1001.96,355.348L1015.46,355.366L1003.27,414.704L1036.33,415.224L1034.3,426.44L987.376,426.154L1001.96,355.348Z" style="fill:none;stroke:black;stroke-width:0.26px;stroke-linecap:butt;"/>
        </g>
        <g transform="matrix(4.33106e-16,-6.76336,6.79184,3.96911e-16,-2367.7,1580.12)">
            <path d="M189.153,594.981L188.832,594.981L188.832,593.899L187.843,593.899L187.843,594.981L187.522,594.981L187.522,592.625L187.843,592.625L187.843,593.622L188.832,593.622L188.832,592.625L189.153,592.625L189.153,594.981Z" style="fill:none;stroke:black;stroke-width:0.01px;stroke-linecap:butt;stroke-miterlimit:1.41421;"/>
        </g>
        <g transform="matrix(4.33106e-16,-6.76336,6.79184,3.96911e-16,-2367.7,1580.12)">
            <path d="M191.095,594.981L190.814,594.981L190.803,594.689C190.749,594.751 190.697,594.803 190.649,594.845C190.6,594.886 190.552,594.92 190.503,594.945C190.455,594.97 190.407,594.988 190.358,594.998C190.31,595.008 190.258,595.013 190.204,595.013C190.018,595.013 189.877,594.959 189.782,594.849C189.687,594.74 189.64,594.575 189.64,594.354L189.64,593.171L189.954,593.171L189.954,594.328C189.954,594.606 190.058,594.745 190.267,594.745C190.306,594.745 190.343,594.739 190.38,594.728C190.417,594.716 190.455,594.696 190.495,594.668C190.536,594.64 190.579,594.602 190.625,594.554C190.671,594.506 190.723,594.445 190.781,594.372L190.781,593.171L191.095,593.171L191.095,594.981Z" style="fill:none;stroke:black;stroke-width:0.01px;stroke-linecap:butt;stroke-miterlimit:1.41421;"/>
        </g>
        <g transform="matrix(4.33106e-16,-6.76336,6.79184,3.96911e-16,-2367.7,1580.12)">
            <path d="M192.973,593.427C193.007,593.469 193.033,593.518 193.052,593.574C193.07,593.63 193.08,593.69 193.08,593.755C193.08,593.849 193.062,593.934 193.028,594.012C192.994,594.089 192.946,594.156 192.883,594.211C192.821,594.266 192.746,594.309 192.659,594.34C192.572,594.371 192.476,594.386 192.371,594.386C192.295,594.386 192.224,594.378 192.158,594.362C192.092,594.345 192.04,594.325 192.002,594.301C191.979,594.335 191.959,594.367 191.944,594.397C191.928,594.427 191.92,594.461 191.92,594.498C191.92,594.543 191.942,594.581 191.986,594.611C192.03,594.641 192.088,594.658 192.16,594.66L192.636,594.678C192.726,594.681 192.81,594.692 192.886,594.712C192.962,594.733 193.028,594.762 193.082,594.801C193.137,594.839 193.18,594.887 193.21,594.943C193.241,595 193.256,595.065 193.256,595.14C193.256,595.22 193.239,595.296 193.204,595.369C193.169,595.441 193.115,595.504 193.043,595.559C192.97,595.613 192.878,595.657 192.766,595.689C192.654,595.722 192.521,595.738 192.368,595.738C192.221,595.738 192.096,595.726 191.993,595.703C191.891,595.68 191.806,595.647 191.74,595.606C191.674,595.564 191.626,595.515 191.596,595.458C191.566,595.401 191.551,595.338 191.551,595.269C191.551,595.182 191.571,595.105 191.612,595.039C191.653,594.973 191.716,594.909 191.801,594.848C191.77,594.833 191.743,594.815 191.72,594.793C191.697,594.772 191.679,594.748 191.664,594.722C191.65,594.696 191.639,594.669 191.632,594.64C191.625,594.611 191.621,594.583 191.621,594.556C191.621,594.477 191.639,594.406 191.676,594.341C191.713,594.276 191.756,594.215 191.807,594.157C191.784,594.129 191.764,594.102 191.746,594.076C191.729,594.05 191.714,594.021 191.701,593.99C191.689,593.96 191.679,593.927 191.673,593.891C191.666,593.856 191.663,593.815 191.663,593.769C191.663,593.676 191.68,593.59 191.714,593.513C191.748,593.435 191.796,593.369 191.858,593.313C191.92,593.258 191.995,593.215 192.082,593.184C192.169,593.154 192.265,593.139 192.371,593.139C192.416,593.139 192.458,593.142 192.499,593.148C192.54,593.154 192.576,593.161 192.607,593.171L193.264,593.171L193.264,593.427L192.973,593.427ZM191.884,595.242C191.884,595.328 191.929,595.39 192.018,595.429C192.107,595.468 192.231,595.488 192.389,595.488C192.489,595.488 192.573,595.479 192.641,595.461C192.709,595.442 192.763,595.419 192.805,595.389C192.846,595.36 192.876,595.326 192.894,595.288C192.912,595.25 192.921,595.212 192.921,595.172C192.921,595.099 192.891,595.045 192.831,595.01C192.771,594.975 192.679,594.955 192.555,594.949L192.083,594.932C192.043,594.959 192.01,594.985 191.984,595.01C191.959,595.035 191.938,595.061 191.924,595.086C191.91,595.112 191.899,595.138 191.893,595.164C191.887,595.19 191.884,595.216 191.884,595.242ZM191.98,593.762C191.98,593.82 191.99,593.873 192.009,593.921C192.028,593.969 192.055,594.01 192.09,594.044C192.125,594.077 192.166,594.103 192.213,594.122C192.261,594.141 192.313,594.15 192.371,594.15C192.434,594.15 192.489,594.139 192.538,594.118C192.587,594.097 192.627,594.069 192.66,594.033C192.694,593.997 192.719,593.955 192.736,593.908C192.754,593.861 192.762,593.813 192.762,593.762C192.762,593.705 192.753,593.652 192.733,593.604C192.714,593.556 192.687,593.515 192.652,593.481C192.618,593.447 192.576,593.421 192.529,593.403C192.481,593.384 192.429,593.375 192.371,593.375C192.309,593.375 192.253,593.386 192.204,593.407C192.156,593.429 192.115,593.457 192.082,593.493C192.049,593.528 192.023,593.569 192.006,593.616C191.989,593.663 191.98,593.712 191.98,593.762Z" style="fill:none;stroke:black;stroke-width:0.01px;stroke-linecap:butt;stroke-miterlimit:1.41421;"/>
        </g>
        <g transform="matrix(4.33106e-16,-6.76336,6.79184,3.96911e-16,-2367.7,1580.12)">
            <path d="M195.275,594.062C195.275,594.202 195.256,594.331 195.216,594.448C195.176,594.565 195.119,594.666 195.045,594.749C194.97,594.833 194.879,594.898 194.772,594.944C194.665,594.99 194.544,595.013 194.408,595.013C194.278,595.013 194.162,594.993 194.059,594.953C193.957,594.913 193.87,594.854 193.798,594.775C193.727,594.697 193.672,594.601 193.634,594.485C193.596,594.37 193.577,594.237 193.577,594.087C193.577,593.946 193.597,593.818 193.637,593.702C193.676,593.586 193.733,593.486 193.808,593.403C193.882,593.319 193.973,593.254 194.08,593.208C194.187,593.162 194.309,593.139 194.444,593.139C194.574,593.139 194.69,593.159 194.793,593.199C194.896,593.239 194.983,593.298 195.055,593.376C195.126,593.453 195.181,593.55 195.219,593.665C195.256,593.78 195.275,593.913 195.275,594.062ZM194.955,594.076C194.955,593.964 194.942,593.867 194.918,593.783C194.893,593.699 194.858,593.63 194.812,593.574C194.766,593.518 194.711,593.476 194.645,593.448C194.58,593.419 194.507,593.405 194.426,593.405C194.333,593.405 194.252,593.424 194.186,593.46C194.119,593.497 194.064,593.546 194.022,593.607C193.979,593.669 193.948,593.74 193.928,593.821C193.908,593.902 193.898,593.987 193.898,594.076C193.898,594.188 193.91,594.286 193.935,594.37C193.96,594.454 193.995,594.524 194.041,594.58C194.086,594.636 194.141,594.678 194.206,594.706C194.271,594.734 194.345,594.748 194.426,594.748C194.52,594.748 194.6,594.73 194.667,594.693C194.734,594.657 194.788,594.608 194.831,594.546C194.874,594.485 194.905,594.414 194.925,594.333C194.945,594.252 194.955,594.166 194.955,594.076Z" style="fill:none;stroke:black;stroke-width:0.01px;stroke-linecap:butt;stroke-miterlimit:1.41421;"/>
        </g>
        <g transform="matrix(4.33106e-16,-6.76336,6.79184,3.96911e-16,-2367.7,1580.12)">
            <path d="M199.303,593.346C199.303,593.442 199.285,593.537 199.249,593.632C199.213,593.726 199.157,593.81 199.081,593.885C199.005,593.959 198.909,594.02 198.791,594.066C198.673,594.112 198.532,594.135 198.369,594.135L198.077,594.135L198.077,594.981L197.756,594.981L197.756,592.625L198.419,592.625C198.536,592.625 198.648,592.638 198.755,592.663C198.862,592.689 198.956,592.731 199.037,592.789C199.118,592.846 199.183,592.921 199.231,593.012C199.279,593.104 199.303,593.215 199.303,593.346ZM198.969,593.36C198.969,593.209 198.92,593.093 198.821,593.012C198.721,592.932 198.583,592.892 198.405,592.892L198.077,592.892L198.077,593.861L198.376,593.861C198.566,593.861 198.712,593.82 198.815,593.737C198.918,593.654 198.969,593.529 198.969,593.36Z" style="fill:none;stroke:black;stroke-width:0.01px;stroke-linecap:butt;stroke-miterlimit:1.41421;"/>
        </g>
        <g transform="matrix(4.33106e-16,-6.76336,6.79184,3.96911e-16,-2367.7,1580.12)">
            <path d="M201.318,593.98C201.318,594.025 201.318,594.062 201.317,594.092C201.315,594.122 201.314,594.15 201.311,594.177L200.04,594.177C200.04,594.362 200.092,594.504 200.195,594.603C200.299,594.702 200.448,594.752 200.642,594.752C200.695,594.752 200.748,594.75 200.801,594.746C200.854,594.741 200.905,594.736 200.954,594.729C201.003,594.721 201.051,594.713 201.096,594.704C201.141,594.695 201.183,594.685 201.221,594.674L201.221,594.932C201.136,594.956 201.039,594.976 200.932,594.991C200.824,595.006 200.713,595.013 200.597,595.013C200.442,595.013 200.309,594.992 200.197,594.95C200.085,594.908 199.994,594.847 199.922,594.767C199.851,594.687 199.798,594.589 199.763,594.473C199.729,594.358 199.712,594.226 199.712,594.08C199.712,593.952 199.73,593.832 199.767,593.718C199.804,593.605 199.857,593.505 199.928,593.419C199.998,593.333 200.084,593.265 200.186,593.214C200.288,593.164 200.404,593.139 200.534,593.139C200.66,593.139 200.772,593.158 200.869,593.198C200.967,593.238 201.049,593.294 201.116,593.367C201.182,593.439 201.233,593.528 201.267,593.632C201.301,593.736 201.318,593.852 201.318,593.98ZM200.992,593.935C200.996,593.855 200.988,593.781 200.969,593.715C200.949,593.648 200.92,593.59 200.879,593.542C200.839,593.494 200.789,593.457 200.729,593.43C200.669,593.403 200.599,593.389 200.52,593.389C200.451,593.389 200.389,593.402 200.332,593.429C200.276,593.455 200.227,593.492 200.186,593.541C200.145,593.589 200.112,593.646 200.087,593.714C200.062,593.781 200.046,593.855 200.04,593.935L200.992,593.935Z" style="fill:none;stroke:black;stroke-width:0.01px;stroke-linecap:butt;stroke-miterlimit:1.41421;"/>
        </g>
        <g transform="matrix(4.33106e-16,-6.76336,6.79184,3.96911e-16,-2367.7,1580.12)">
            <path d="M203.348,593.98C203.348,594.025 203.348,594.062 203.346,594.092C203.345,594.122 203.343,594.15 203.341,594.177L202.07,594.177C202.07,594.362 202.122,594.504 202.225,594.603C202.329,594.702 202.478,594.752 202.672,594.752C202.725,594.752 202.778,594.75 202.831,594.746C202.884,594.741 202.935,594.736 202.984,594.729C203.033,594.721 203.081,594.713 203.126,594.704C203.171,594.695 203.212,594.685 203.251,594.674L203.251,594.932C203.166,594.956 203.069,594.976 202.962,594.991C202.854,595.006 202.743,595.013 202.627,595.013C202.472,595.013 202.339,594.992 202.227,594.95C202.115,594.908 202.024,594.847 201.952,594.767C201.881,594.687 201.828,594.589 201.793,594.473C201.759,594.358 201.742,594.226 201.742,594.08C201.742,593.952 201.76,593.832 201.797,593.718C201.834,593.605 201.887,593.505 201.957,593.419C202.028,593.333 202.114,593.265 202.216,593.214C202.318,593.164 202.434,593.139 202.564,593.139C202.69,593.139 202.802,593.158 202.899,593.198C202.997,593.238 203.079,593.294 203.145,593.367C203.212,593.439 203.263,593.528 203.297,593.632C203.331,593.736 203.348,593.852 203.348,593.98ZM203.022,593.935C203.026,593.855 203.018,593.781 202.999,593.715C202.979,593.648 202.95,593.59 202.909,593.542C202.869,593.494 202.819,593.457 202.759,593.43C202.699,593.403 202.629,593.389 202.55,593.389C202.481,593.389 202.419,593.402 202.362,593.429C202.306,593.455 202.257,593.492 202.216,593.541C202.175,593.589 202.142,593.646 202.117,593.714C202.092,593.781 202.076,593.855 202.07,593.935L203.022,593.935Z" style="fill:none;stroke:black;stroke-width:0.01px;stroke-linecap:butt;stroke-miterlimit:1.41421;"/>
        </g>
        <g transform="matrix(4.33106e-16,-6.76336,6.79184,3.96911e-16,-2367.7,1580.12)">
            <path d="M205.308,594.956C205.237,594.974 205.164,594.987 205.088,594.994C205.012,595.002 204.935,595.006 204.857,595.006C204.63,595.006 204.461,594.955 204.349,594.852C204.237,594.749 204.181,594.592 204.181,594.379L204.181,593.434L203.675,593.434L203.675,593.171L204.181,593.171L204.181,592.673L204.495,592.592L204.495,593.171L205.308,593.171L205.308,593.434L204.495,593.434L204.495,594.354C204.495,594.483 204.529,594.58 204.599,594.645C204.668,594.709 204.769,594.741 204.904,594.741C204.962,594.741 205.025,594.737 205.093,594.728C205.162,594.719 205.233,594.705 205.308,594.685L205.308,594.956Z" style="fill:none;stroke:black;stroke-width:0.01px;stroke-linecap:butt;stroke-miterlimit:1.41421;"/>
        </g>
        <g transform="matrix(4.33106e-16,-6.76336,6.79184,3.96911e-16,-2367.7,1580.12)">
            <path d="M207.408,593.98C207.408,594.025 207.408,594.062 207.406,594.092C207.405,594.122 207.403,594.15 207.401,594.177L206.13,594.177C206.13,594.362 206.182,594.504 206.285,594.603C206.388,594.702 206.537,594.752 206.732,594.752C206.785,594.752 206.838,594.75 206.891,594.746C206.944,594.741 206.995,594.736 207.044,594.729C207.093,594.721 207.14,594.713 207.186,594.704C207.231,594.695 207.272,594.685 207.311,594.674L207.311,594.932C207.225,594.956 207.129,594.976 207.021,594.991C206.914,595.006 206.802,595.013 206.687,595.013C206.532,595.013 206.399,594.992 206.287,594.95C206.175,594.908 206.083,594.847 206.012,594.767C205.94,594.687 205.888,594.589 205.853,594.473C205.819,594.358 205.802,594.226 205.802,594.08C205.802,593.952 205.82,593.832 205.857,593.718C205.894,593.605 205.947,593.505 206.017,593.419C206.088,593.333 206.174,593.265 206.276,593.214C206.378,593.164 206.494,593.139 206.624,593.139C206.75,593.139 206.862,593.158 206.959,593.198C207.057,593.238 207.139,593.294 207.205,593.367C207.272,593.439 207.323,593.528 207.357,593.632C207.391,593.736 207.408,593.852 207.408,593.98ZM207.082,593.935C207.085,593.855 207.078,593.781 207.058,593.715C207.039,593.648 207.009,593.59 206.969,593.542C206.929,593.494 206.879,593.457 206.819,593.43C206.759,593.403 206.689,593.389 206.61,593.389C206.541,593.389 206.479,593.402 206.422,593.429C206.366,593.455 206.317,593.492 206.276,593.541C206.235,593.589 206.202,593.646 206.177,593.714C206.152,593.781 206.136,593.855 206.13,593.935L207.082,593.935Z" style="fill:none;stroke:black;stroke-width:0.01px;stroke-linecap:butt;stroke-miterlimit:1.41421;"/>
        </g>
        <g transform="matrix(4.33106e-16,-6.76336,6.79184,3.96911e-16,-2367.7,1580.12)">
            <path d="M207.983,593.171L208.27,593.171L208.279,593.504C208.386,593.376 208.491,593.283 208.595,593.225C208.699,593.167 208.804,593.139 208.91,593.139C209.097,593.139 209.24,593.199 209.336,593.321C209.433,593.442 209.478,593.622 209.471,593.861L209.153,593.861C209.157,593.703 209.134,593.588 209.084,593.516C209.034,593.445 208.961,593.409 208.865,593.409C208.823,593.409 208.78,593.416 208.738,593.431C208.695,593.446 208.651,593.471 208.606,593.504C208.561,593.537 208.513,593.579 208.463,593.631C208.412,593.682 208.358,593.745 208.301,593.818L208.301,594.981L207.983,594.981L207.983,593.171Z" style="fill:none;stroke:black;stroke-width:0.01px;stroke-linecap:butt;stroke-miterlimit:1.41421;"/>
        </g>
        <g transform="matrix(4.33106e-16,-6.76336,6.79184,3.96911e-16,-2367.7,1580.12)">
            <path d="M211.373,594.487C211.373,594.551 211.362,594.608 211.34,594.658C211.318,594.709 211.289,594.754 211.252,594.793C211.214,594.832 211.171,594.865 211.122,594.893C211.073,594.92 211.02,594.943 210.964,594.961C210.908,594.979 210.851,594.992 210.792,595.001C210.733,595.009 210.675,595.013 210.619,595.013C210.496,595.013 210.384,595.008 210.281,594.997C210.178,594.986 210.078,594.969 209.979,594.945L209.979,594.656C210.085,594.687 210.19,594.709 210.294,594.725C210.399,594.741 210.503,594.748 210.606,594.748C210.757,594.748 210.868,594.728 210.94,594.687C211.012,594.646 211.048,594.588 211.048,594.512C211.048,594.48 211.042,594.451 211.031,594.425C211.019,594.399 210.999,594.374 210.969,594.351C210.939,594.327 210.892,594.303 210.829,594.278C210.766,594.253 210.68,594.224 210.57,594.191C210.489,594.167 210.413,594.14 210.344,594.109C210.275,594.079 210.215,594.042 210.165,594C210.114,593.958 210.074,593.909 210.046,593.852C210.017,593.796 210.002,593.729 210.002,593.652C210.002,593.602 210.014,593.547 210.038,593.486C210.061,593.426 210.101,593.37 210.157,593.319C210.214,593.267 210.29,593.224 210.386,593.19C210.483,593.156 210.603,593.139 210.747,593.139C210.818,593.139 210.897,593.142 210.983,593.15C211.07,593.158 211.16,593.172 211.254,593.191L211.254,593.47C211.155,593.446 211.062,593.428 210.973,593.417C210.885,593.406 210.808,593.4 210.743,593.4C210.665,593.4 210.599,593.406 210.546,593.418C210.492,593.43 210.449,593.446 210.416,593.468C210.383,593.489 210.359,593.513 210.345,593.541C210.33,593.57 210.323,593.6 210.323,593.632C210.323,593.665 210.33,593.694 210.342,593.721C210.355,593.747 210.378,593.773 210.413,593.797C210.447,593.822 210.495,593.847 210.556,593.871C210.617,593.896 210.697,593.923 210.796,593.952C210.903,593.983 210.993,594.016 211.066,594.05C211.139,594.084 211.199,594.122 211.245,594.164C211.29,594.206 211.323,594.254 211.343,594.307C211.363,594.36 211.373,594.42 211.373,594.487Z" style="fill:none;stroke:black;stroke-width:0.01px;stroke-linecap:butt;stroke-miterlimit:1.41421;"/>
        </g>
        <g transform="matrix(4.33106e-16,-6.76336,6.79184,3.96911e-16,-2367.7,1580.12)">
            <path d="M215.528,594.981L213.976,594.981L213.976,594.7L214.585,594.094C214.685,593.995 214.766,593.91 214.828,593.838C214.891,593.766 214.94,593.7 214.974,593.641C215.009,593.581 215.033,593.525 215.045,593.472C215.057,593.419 215.063,593.362 215.063,593.301C215.063,593.243 215.055,593.188 215.039,593.136C215.024,593.084 215,593.038 214.967,592.998C214.935,592.958 214.893,592.927 214.841,592.904C214.789,592.881 214.727,592.87 214.655,592.87C214.556,592.87 214.465,592.892 214.383,592.937C214.301,592.981 214.226,593.039 214.158,593.11L213.985,592.902C214.074,592.809 214.176,592.733 214.292,592.677C214.408,592.621 214.543,592.592 214.697,592.592C214.801,592.592 214.897,592.608 214.983,592.639C215.069,592.67 215.143,592.715 215.205,592.774C215.268,592.833 215.316,592.905 215.35,592.991C215.385,593.076 215.402,593.172 215.402,593.279C215.402,593.369 215.39,593.453 215.366,593.53C215.342,593.607 215.305,593.683 215.257,593.76C215.208,593.836 215.147,593.915 215.073,593.997C214.999,594.078 214.911,594.168 214.81,594.265L214.383,594.682L215.528,594.682L215.528,594.981Z" style="fill:none;stroke:black;stroke-width:0.01px;stroke-linecap:butt;stroke-miterlimit:1.41421;"/>
        </g>
        <g transform="matrix(4.33106e-16,-6.76336,6.79184,3.96911e-16,-2367.7,1580.12)">
            <path d="M217.612,593.804C217.612,593.984 217.594,594.148 217.558,594.297C217.522,594.445 217.467,594.573 217.394,594.679C217.32,594.785 217.229,594.868 217.121,594.926C217.012,594.984 216.884,595.013 216.738,595.013C216.611,595.013 216.497,594.99 216.393,594.942C216.29,594.895 216.202,594.822 216.128,594.723C216.055,594.625 215.998,594.499 215.959,594.346C215.919,594.194 215.899,594.013 215.899,593.804C215.899,593.623 215.918,593.459 215.954,593.31C215.991,593.161 216.046,593.033 216.118,592.927C216.191,592.82 216.282,592.738 216.391,592.68C216.501,592.621 216.628,592.592 216.774,592.592C216.9,592.592 217.015,592.616 217.118,592.663C217.221,592.711 217.31,592.784 217.383,592.883C217.456,592.983 217.513,593.108 217.552,593.261C217.592,593.414 217.612,593.595 217.612,593.804ZM217.295,593.815C217.295,593.774 217.293,593.733 217.29,593.693C217.287,593.653 217.284,593.613 217.28,593.575L216.283,594.316C216.301,594.378 216.324,594.436 216.352,594.489C216.379,594.542 216.413,594.587 216.452,594.625C216.491,594.663 216.535,594.692 216.585,594.713C216.635,594.734 216.692,594.745 216.756,594.745C216.837,594.745 216.912,594.725 216.978,594.685C217.045,594.646 217.102,594.587 217.149,594.509C217.196,594.431 217.232,594.333 217.257,594.217C217.282,594.102 217.295,593.967 217.295,593.815ZM216.217,593.793C216.217,593.83 216.217,593.867 216.217,593.905C216.218,593.942 216.22,593.978 216.224,594.013L217.221,593.276C217.203,593.214 217.18,593.158 217.152,593.108C217.125,593.057 217.092,593.014 217.053,592.977C217.015,592.941 216.971,592.912 216.921,592.892C216.872,592.871 216.817,592.861 216.756,592.861C216.674,592.861 216.6,592.881 216.533,592.92C216.466,592.96 216.409,593.019 216.363,593.098C216.316,593.177 216.28,593.274 216.254,593.39C216.229,593.506 216.217,593.64 216.217,593.793Z" style="fill:none;stroke:black;stroke-width:0.01px;stroke-linecap:butt;stroke-miterlimit:1.41421;"/>
        </g>
        <g transform="matrix(4.33106e-16,-6.76336,6.79184,3.96911e-16,-2367.7,1580.12)">
            <path d="M219.568,594.981L218.088,594.981L218.088,594.689L218.694,594.689L218.694,592.969L218.129,593.276L218.014,593.009L218.764,592.614L219.042,592.614L219.042,594.689L219.568,594.689L219.568,594.981Z" style="fill:none;stroke:black;stroke-width:0.01px;stroke-linecap:butt;stroke-miterlimit:1.41421;"/>
        </g>
        <g transform="matrix(4.33106e-16,-6.76336,6.79184,3.96911e-16,-2367.7,1580.12)">
            <path d="M221.618,594.39C221.618,594.489 221.597,594.578 221.556,594.656C221.516,594.733 221.458,594.798 221.385,594.851C221.312,594.904 221.225,594.944 221.126,594.972C221.026,595 220.918,595.013 220.801,595.013C220.672,595.013 220.559,594.999 220.461,594.97C220.363,594.941 220.281,594.901 220.215,594.849C220.149,594.798 220.099,594.736 220.066,594.665C220.032,594.595 220.015,594.516 220.015,594.431C220.015,594.287 220.055,594.163 220.136,594.058C220.216,593.953 220.341,593.858 220.509,593.773C220.355,593.695 220.243,593.608 220.172,593.513C220.101,593.417 220.066,593.307 220.066,593.184C220.066,593.108 220.081,593.035 220.112,592.964C220.144,592.893 220.191,592.83 220.254,592.774C220.317,592.719 220.396,592.675 220.491,592.642C220.586,592.609 220.698,592.592 220.826,592.592C220.948,592.592 221.054,592.605 221.146,592.631C221.238,592.657 221.315,592.694 221.378,592.742C221.44,592.79 221.487,592.848 221.519,592.917C221.55,592.985 221.565,593.062 221.565,593.146C221.565,593.283 221.527,593.399 221.451,593.495C221.375,593.592 221.266,593.676 221.126,593.748C221.195,593.783 221.26,593.821 221.32,593.863C221.38,593.905 221.433,593.952 221.477,594.004C221.522,594.056 221.556,594.113 221.581,594.177C221.605,594.241 221.618,594.312 221.618,594.39ZM221.245,593.171C221.245,593.064 221.207,592.984 221.132,592.932C221.057,592.88 220.951,592.854 220.816,592.854C220.681,592.854 220.576,592.88 220.501,592.931C220.426,592.983 220.388,593.06 220.388,593.164C220.388,593.211 220.397,593.254 220.415,593.294C220.433,593.333 220.461,593.37 220.499,593.405C220.537,593.44 220.584,593.474 220.641,593.508C220.697,593.542 220.764,593.576 220.843,593.611C220.978,593.547 221.079,593.481 221.145,593.412C221.212,593.343 221.245,593.262 221.245,593.171ZM221.277,594.413C221.277,594.369 221.27,594.325 221.255,594.283C221.241,594.241 221.215,594.2 221.178,594.159C221.141,594.118 221.091,594.077 221.028,594.036C220.966,593.995 220.886,593.953 220.79,593.91C220.709,593.95 220.64,593.989 220.584,594.028C220.528,594.067 220.483,594.107 220.449,594.147C220.414,594.187 220.39,594.229 220.376,594.272C220.361,594.316 220.354,594.361 220.354,594.409C220.354,594.464 220.366,594.511 220.389,594.553C220.413,594.594 220.445,594.629 220.486,594.658C220.526,594.687 220.575,594.709 220.632,594.723C220.688,594.738 220.749,594.745 220.816,594.745C220.879,594.745 220.939,594.738 220.996,594.725C221.052,594.712 221.101,594.692 221.143,594.665C221.184,594.638 221.217,594.603 221.241,594.562C221.265,594.52 221.277,594.471 221.277,594.413Z" style="fill:none;stroke:black;stroke-width:0.01px;stroke-linecap:butt;stroke-miterlimit:1.41421;"/>
        </g>
    </g>
    <g id="_01_SNIJLIJNEN" serif:id="01_SNIJLIJNEN">
        <g transform="matrix(1,-1.0842e-19,0,1,-817.295,-167.548)">
            <circle cx="1144.03" cy="841.083" r="4.281" style="fill:none;stroke:rgb(255,0,0);stroke-width:0.1px;"/>
        </g>
        <g transform="matrix(1,-1.0842e-19,0,1,-315.679,-6.92783)">
            <circle cx="1144.03" cy="841.083" r="4.281" style="fill:none;stroke:rgb(255,0,0);stroke-width:0.1px;"/>
        </g>
        <g transform="matrix(1,-1.0842e-19,0,1,-315.679,36.269)">
            <circle cx="1144.03" cy="841.083" r="4.281" style="fill:none;stroke:rgb(255,0,0);stroke-width:0.1px;"/>
        </g>
        <g transform="matrix(1,-1.0842e-19,0,1,-817.295,36.269)">
            <circle cx="1144.03" cy="841.083" r="4.281" style="fill:none;stroke:rgb(255,0,0);stroke-width:0.1px;"/>
        </g>
        <g id="left" transform="matrix(0.000480767,0.737705,-3.89388,0.00253767,2625.17,539.628)">
            <path d="M496.063,595.276L150.236,595.276L382.308,456.378L496.063,456.378L496.063,595.276Z" style="fill:none;stroke:rgb(255,0,0);stroke-width:0.04px;"/>
        </g>
        <g id="hole" transform="matrix(1,0,0,1,278.293,19.8425)">
            <path d="M530.079,194.882C530.079,189.015 525.316,184.252 519.449,184.252L498.189,184.252C492.322,184.252 487.559,189.015 487.559,194.882L487.559,216.142C487.559,222.009 492.322,226.772 498.189,226.772L519.449,226.772C525.316,226.772 530.079,222.009 530.079,216.142L530.079,194.882Z" style="fill:none;stroke:rgb(255,0,0);stroke-width:0.1px;"/>
        </g>
        <g transform="matrix(1,0,0,1,-315.679,-755.927)">
            <circle cx="1144.03" cy="841.083" r="4.281" style="fill:none;stroke:rgb(255,0,0);stroke-width:0.1px;"/>
        </g>
        <g transform="matrix(1,0,0,1,-817.295,-755.927)">
            <circle cx="1144.03" cy="841.083" r="4.281" style="fill:none;stroke:rgb(255,0,0);stroke-width:0.1px;"/>
        </g>
        <g transform="matrix(1,0,0,1,-817.295,-711.242)">
            <circle cx="1144.03" cy="841.083" r="4.281" style="fill:none;stroke:rgb(255,0,0);stroke-width:0.1px;"/>
        </g>
        <g transform="matrix(1,0,0,1,-315.458,-551.853)">
            <circle cx="1144.03" cy="841.083" r="4.281" style="fill:none;stroke:rgb(255,0,0);stroke-width:0.1px;"/>
        </g>
        <g id="right" transform="matrix(-0.000480767,-0.737705,3.89388,-0.00253767,-1469.58,424.152)">
            <path d="M496.063,595.276L150.236,595.276L382.308,456.378L496.063,456.378L496.063,595.276Z" style="fill:none;stroke:rgb(255,0,0);stroke-width:0.04px;"/>
        </g>
        <g transform="matrix(1.00421,-2.54695e-18,-2.54695e-18,1,257.809,-773.051)">
            <circle cx="1144.03" cy="841.083" r="4.281" style="fill:none;stroke:rgb(255,0,0);stroke-width:0.1px;"/>
        </g>
        <g transform="matrix(1.00421,-2.54695e-18,-2.54695e-18,1,257.809,54.6653)">
            <circle cx="1144.03" cy="841.083" r="4.281" style="fill:none;stroke:rgb(255,0,0);stroke-width:0.1px;"/>
        </g>
        <g transform="matrix(1.00421,-2.54695e-18,-2.54695e-18,1,-260.884,54.6653)">
            <circle cx="1144.03" cy="841.083" r="4.281" style="fill:none;stroke:rgb(255,0,0);stroke-width:0.1px;"/>
        </g>
        <g transform="matrix(1.00421,-2.54695e-18,-2.54695e-18,1,-260.884,-773.051)">
            <circle cx="1144.03" cy="841.083" r="4.281" style="fill:none;stroke:rgb(255,0,0);stroke-width:0.1px;"/>
        </g>
        <g id="bottom" transform="matrix(1.71713e-16,0.240212,0.2309,9.04757e-18,801.754,-6.52597)">
            <rect x="263.179" y="324.043" width="3540.18" height="2342.35" style="fill:none;stroke:rgb(255,0,0);stroke-width:0.42px;"/>
        </g>
        <g transform="matrix(6.12323e-17,1,-1,6.12323e-17,1737.62,-135.092)">
            <circle cx="1144.03" cy="841.083" r="4.281" style="fill:none;stroke:rgb(255,0,0);stroke-width:0.1px;"/>
        </g>
        <g transform="matrix(6.12323e-17,1,-1,6.12323e-17,2513.87,-135.092)">
            <circle cx="1144.03" cy="841.083" r="4.281" style="fill:none;stroke:rgb(255,0,0);stroke-width:0.1px;"/>
        </g>
        <g transform="matrix(6.12323e-17,1,-1,6.12323e-17,1737.62,-197.454)">
            <circle cx="1144.03" cy="841.083" r="4.281" style="fill:none;stroke:rgb(255,0,0);stroke-width:0.1px;"/>
        </g>
        <g transform="matrix(6.12323e-17,1,-1,6.12323e-17,2513.87,-197.454)">
            <circle cx="1144.03" cy="841.083" r="4.281" style="fill:none;stroke:rgb(255,0,0);stroke-width:0.1px;"/>
        </g>
        <g id="front" transform="matrix(0.230604,-5.33913e-17,-9.35925e-18,-0.0363051,815.886,1032.04)">
            <rect x="263.179" y="324.043" width="3540.18" height="2342.35" style="fill:none;stroke:rgb(255,0,0);stroke-width:0.61px;"/>
        </g>
        <g transform="matrix(1,-1.2326e-32,-4.93038e-32,1,544.541,12.0876)">
            <circle cx="1144.03" cy="841.083" r="4.281" style="fill:none;stroke:rgb(255,0,0);stroke-width:0.1px;"/>
        </g>
        <g transform="matrix(1,-1.2326e-32,-4.93038e-32,1,544.541,-764.489)">
            <circle cx="1144.03" cy="841.083" r="4.281" style="fill:none;stroke:rgb(255,0,0);stroke-width:0.1px;"/>
        </g>
        <g transform="matrix(1,0,-4.93038e-32,1,312.979,12.0876)">
            <circle cx="1144.03" cy="841.083" r="4.281" style="fill:none;stroke:rgb(255,0,0);stroke-width:0.1px;"/>
        </g>
        <g transform="matrix(1,0,-4.93038e-32,1,312.979,-764.489)">
            <circle cx="1144.03" cy="841.083" r="4.281" style="fill:none;stroke:rgb(255,0,0);stroke-width:0.1px;"/>
        </g>
        <g id="back" transform="matrix(-1.02373e-16,-0.230604,-0.108915,1.09374e-17,1736.08,933.761)">
            <rect x="263.179" y="324.043" width="3540.18" height="2342.35" style="fill:none;stroke:rgb(255,0,0);stroke-width:0.55px;"/>
        </g>
    </g>
</svg>
